<svg width="100" xmlns="http://www.w3.org/2000/svg" height="75" fill="none"><defs><clipPath id="a" class="frame-clip frame-clip-def"><rect rx="0" ry="0" width="100" height="75"/></clipPath></defs><g clip-path="url(#a)"><g class="fills"><rect width="100" height="75" class="frame-background" style="fill: rgb(177, 178, 181); fill-opacity: 0;" ry="0" rx="0" fill="none"/></g><g class="frame-children"><rect rx="0" ry="0" x="28" y="16" width="12" height="12" style="fill: rgb(255, 255, 255); fill-opacity: 1;" class="fills"/><rect rx="0" ry="0" x="44" y="16" width="12" height="12" style="fill: rgb(255, 255, 255); fill-opacity: 1;" class="fills"/><rect rx="0" ry="0" x="60" y="16" width="12" height="12" style="fill: rgb(255, 255, 255); fill-opacity: 1;" class="fills"/><rect rx="0" ry="0" x="28" y="32" width="12" height="12" style="fill: rgb(255, 255, 255); fill-opacity: 1;" class="fills"/><rect rx="0" ry="0" x="44" y="32" width="12" height="12" style="fill: rgb(255, 255, 255); fill-opacity: 1;" class="fills"/><rect rx="0" ry="0" x="60" y="32" width="12" height="12" style="fill: rgb(255, 255, 255); fill-opacity: 1;" class="fills"/><rect rx="0" ry="0" x="28" y="48" width="12" height="12" style="fill: rgb(255, 255, 255); fill-opacity: 1;" class="fills"/><rect rx="0" ry="0" x="44" y="48" width="12" height="12" style="fill: rgb(255, 255, 255); fill-opacity: 1;" class="fills"/><rect rx="0" ry="0" x="60" y="48" width="12" height="12" style="fill: rgb(255, 255, 255); fill-opacity: 1;" class="fills"/></g></g></svg>