<svg width="50" xmlns="http://www.w3.org/2000/svg" height="50" fill="none"><defs><clipPath id="a" class="frame-clip frame-clip-def"><rect rx="0" ry="0" width="50" height="50"/></clipPath></defs><g clip-path="url(#a)"><g class="fills"><rect rx="0" ry="0" width="50" height="50" class="frame-background"/></g><g class="frame-children"><rect rx="0" ry="0" x="13" y="10" width="24" height="30" class="fills"/><g class="strokes"><g class="inner-stroke-shape"><defs><clipPath id="f"><use href="#e"/></clipPath><rect rx="0" ry="0" x="13" y="10" width="24" height="30" id="e" style="fill: none; stroke-width: 4; stroke: rgb(255, 255, 255); stroke-opacity: 1;"/></defs><use href="#e" clip-path="url('#f')"/></g></g><path d="M17.571 29.245h14.858" class="fills"/><g class="strokes"><path d="M17.571 29.245h14.858" style="fill: none; stroke-width: 2; stroke: rgb(255, 255, 255); stroke-opacity: 1;" class="stroke-shape"/></g><path d="M17.571 33.774h14.858" class="fills"/><g class="strokes"><path d="M17.571 33.774h14.858" style="fill: none; stroke-width: 2; stroke: rgb(255, 255, 255); stroke-opacity: 1;" class="stroke-shape"/></g><path d="M18.714 24.151s1.143-2.83 3.429-2.83c2.286 0 3.428 2.83 3.428 2.83m-3.428-2.83" class="fills"/><g class="strokes"><path d="M18.714 24.151s1.143-2.83 3.429-2.83c2.286 0 3.428 2.83 3.428 2.83m-3.428-2.83" style="fill: none; stroke-width: 2; stroke: rgb(255, 255, 255); stroke-opacity: 1;" class="stroke-shape"/></g><ellipse cx="22.143" cy="16.792" rx="2.286" ry="2.264" style="fill: rgb(255, 255, 255); fill-opacity: 1;" class="fills"/><path d="M27 10h10v10L27 10Z" style="fill: rgb(255, 255, 255); fill-opacity: 1;" class="fills"/></g></g></svg>