<svg width="50" xmlns="http://www.w3.org/2000/svg" height="50" fill="none"><defs><clipPath id="a" class="frame-clip frame-clip-def"><rect rx="0" ry="0" width="50" height="50"/></clipPath></defs><g clip-path="url(#a)"><g class="fills"><rect rx="0" ry="0" width="50" height="50" class="frame-background"/></g><g class="frame-children"><path d="M15.029 9.869c-1.327-.987-5.307 3.26-5.307 5.261 0 2.63.404 3.573 1.99 6.247 3.317 5.589 7.961 10.522 15.258 15.782 4.396 3.17 5.853 3.667 8.292 2.631 2.321-.987 5.407-4.632 4.975-5.919-.332-.986-2.322-1.644-4.312-2.959-1.422-.94-2.653-2.301-3.98-2.301-1.368 0-3.98 2.301-3.98 2.301s-1.659-.657-5.307-3.946c-3.995-3.6-4.312-5.26-4.312-5.26s3.061-3.463 2.322-4.604c-2.985-4.603-4.092-6.083-5.639-7.233ZM33.935 28.282" style="fill: rgb(255, 255, 255); fill-opacity: 1;" class="fills"/></g></g></svg>